<svg width="296" height="279" viewBox="0 0 296 279" fill="none" xmlns="http://www.w3.org/2000/svg">
<path d="M179.008 160.739H114.088C113.17 160.74 112.29 161.106 111.641 161.756C110.993 162.407 110.629 163.288 110.63 164.206V266.76H182.475V164.206C182.475 163.751 182.386 163.3 182.212 162.879C182.037 162.458 181.782 162.076 181.46 161.754C181.138 161.432 180.756 161.176 180.335 161.002C179.914 160.828 179.463 160.739 179.008 160.739ZM146.766 219.008C144.736 218.999 142.792 218.188 141.356 216.753C139.921 215.317 139.11 213.373 139.1 211.343V199.514C139.103 197.482 139.911 195.535 141.349 194.099C142.786 192.663 144.735 191.857 146.766 191.857C148.798 191.857 150.746 192.663 152.184 194.099C153.621 195.535 154.43 197.482 154.432 199.514V211.343C154.423 213.373 153.612 215.317 152.177 216.753C150.741 218.188 148.797 218.999 146.766 219.008Z" fill="#2F2E41"/>
<path d="M110.407 263.479V273.374C110.408 273.886 110.612 274.378 110.975 274.74C111.337 275.103 111.829 275.307 112.341 275.308H180.764C181.276 275.306 181.766 275.101 182.129 274.739C182.491 274.377 182.695 273.886 182.698 273.374V263.479H110.407Z" fill="#3F3D56"/>
<path d="M286.508 0.692566H9.00336C6.61916 0.696358 4.33372 1.64516 2.64783 3.33104C0.961937 5.01692 0.0130855 7.30237 0.00927734 9.68657V196.948C0.0115702 199.333 0.9599 201.619 2.64612 203.305C4.33234 204.991 6.61869 205.94 9.00336 205.942H286.508C288.893 205.94 291.179 204.991 292.865 203.305C294.552 201.619 295.5 199.333 295.502 196.948V9.68658C295.499 7.30238 294.55 5.01692 292.864 3.33104C291.178 1.64516 288.892 0.696358 286.508 0.692566Z" fill="#3F3D56"/>
<path d="M284.192 7.18881H11.3219C10.0453 7.19159 8.82196 7.70062 7.92023 8.60423C7.01849 9.50784 6.51202 10.7322 6.5119 12.0088V194.629C6.5141 195.904 7.02152 197.126 7.9231 198.028C8.82467 198.929 10.0469 199.437 11.3219 199.439H284.192C285.467 199.437 286.689 198.929 287.591 198.028C288.492 197.126 289 195.904 289.002 194.629V12.0088C289.002 10.7322 288.495 9.50784 287.594 8.60423C286.692 7.70062 285.468 7.19159 284.192 7.18881Z" fill="white"/>
<path d="M231.041 278.751H68.6986C68.2542 278.751 67.8154 278.652 67.4143 278.461C67.0131 278.27 66.6596 277.991 66.3796 277.646C66.0996 277.301 65.9002 276.898 65.7958 276.466C65.6914 276.034 65.6847 275.584 65.7763 275.15L68.2952 263.186C68.4386 262.516 68.8066 261.916 69.3381 261.485C69.8696 261.054 70.5327 260.817 71.2172 260.815H228.523C229.207 260.817 229.87 261.054 230.402 261.485C230.933 261.916 231.301 262.516 231.445 263.186L233.964 275.15C234.055 275.584 234.049 276.034 233.944 276.466C233.84 276.898 233.64 277.301 233.36 277.646C233.08 277.991 232.727 278.27 232.326 278.461C231.925 278.652 231.486 278.751 231.041 278.751Z" fill="#2F2E41"/>
<path d="M76.8818 262.969H72.8582C72.5886 262.969 72.37 263.187 72.37 263.457V265.481C72.37 265.75 72.5886 265.969 72.8582 265.969H76.8818C77.1515 265.969 77.37 265.75 77.37 265.481V263.457C77.37 263.187 77.1515 262.969 76.8818 262.969Z" fill="#3F3D56"/>
<path d="M86.8818 262.969H82.8582C82.5886 262.969 82.37 263.187 82.37 263.457V265.481C82.37 265.75 82.5886 265.969 82.8582 265.969H86.8818C87.1515 265.969 87.37 265.75 87.37 265.481V263.457C87.37 263.187 87.1515 262.969 86.8818 262.969Z" fill="#3F3D56"/>
<path d="M96.8818 262.969H92.8582C92.5886 262.969 92.37 263.187 92.37 263.457V265.481C92.37 265.75 92.5886 265.969 92.8582 265.969H96.8818C97.1515 265.969 97.37 265.75 97.37 265.481V263.457C97.37 263.187 97.1515 262.969 96.8818 262.969Z" fill="#3F3D56"/>
<path d="M106.882 262.969H102.858C102.589 262.969 102.37 263.187 102.37 263.457V265.481C102.37 265.75 102.589 265.969 102.858 265.969H106.882C107.151 265.969 107.37 265.75 107.37 265.481V263.457C107.37 263.187 107.151 262.969 106.882 262.969Z" fill="#3F3D56"/>
<path d="M116.882 262.969H112.858C112.589 262.969 112.37 263.187 112.37 263.457V265.481C112.37 265.75 112.589 265.969 112.858 265.969H116.882C117.151 265.969 117.37 265.75 117.37 265.481V263.457C117.37 263.187 117.151 262.969 116.882 262.969Z" fill="#3F3D56"/>
<path d="M126.882 262.969H122.858C122.589 262.969 122.37 263.187 122.37 263.457V265.481C122.37 265.75 122.589 265.969 122.858 265.969H126.882C127.151 265.969 127.37 265.75 127.37 265.481V263.457C127.37 263.187 127.151 262.969 126.882 262.969Z" fill="#3F3D56"/>
<path d="M136.882 262.969H132.858C132.589 262.969 132.37 263.187 132.37 263.457V265.481C132.37 265.75 132.589 265.969 132.858 265.969H136.882C137.151 265.969 137.37 265.75 137.37 265.481V263.457C137.37 263.187 137.151 262.969 136.882 262.969Z" fill="#3F3D56"/>
<path d="M146.882 262.969H142.858C142.589 262.969 142.37 263.187 142.37 263.457V265.481C142.37 265.75 142.589 265.969 142.858 265.969H146.882C147.151 265.969 147.37 265.75 147.37 265.481V263.457C147.37 263.187 147.151 262.969 146.882 262.969Z" fill="#3F3D56"/>
<path d="M156.882 262.969H152.858C152.589 262.969 152.37 263.187 152.37 263.457V265.481C152.37 265.75 152.589 265.969 152.858 265.969H156.882C157.151 265.969 157.37 265.75 157.37 265.481V263.457C157.37 263.187 157.151 262.969 156.882 262.969Z" fill="#3F3D56"/>
<path d="M166.882 262.969H162.858C162.589 262.969 162.37 263.187 162.37 263.457V265.481C162.37 265.75 162.589 265.969 162.858 265.969H166.882C167.151 265.969 167.37 265.75 167.37 265.481V263.457C167.37 263.187 167.151 262.969 166.882 262.969Z" fill="#3F3D56"/>
<path d="M176.882 262.969H172.858C172.589 262.969 172.37 263.187 172.37 263.457V265.481C172.37 265.75 172.589 265.969 172.858 265.969H176.882C177.151 265.969 177.37 265.75 177.37 265.481V263.457C177.37 263.187 177.151 262.969 176.882 262.969Z" fill="#3F3D56"/>
<path d="M186.882 262.969H182.858C182.589 262.969 182.37 263.187 182.37 263.457V265.481C182.37 265.75 182.589 265.969 182.858 265.969H186.882C187.151 265.969 187.37 265.75 187.37 265.481V263.457C187.37 263.187 187.151 262.969 186.882 262.969Z" fill="#3F3D56"/>
<path d="M196.882 262.969H192.858C192.589 262.969 192.37 263.187 192.37 263.457V265.481C192.37 265.75 192.589 265.969 192.858 265.969H196.882C197.151 265.969 197.37 265.75 197.37 265.481V263.457C197.37 263.187 197.151 262.969 196.882 262.969Z" fill="#3F3D56"/>
<path d="M206.882 262.969H202.858C202.589 262.969 202.37 263.187 202.37 263.457V265.481C202.37 265.75 202.589 265.969 202.858 265.969H206.882C207.151 265.969 207.37 265.75 207.37 265.481V263.457C207.37 263.187 207.151 262.969 206.882 262.969Z" fill="#3F3D56"/>
<path d="M216.882 262.969H212.858C212.589 262.969 212.37 263.187 212.37 263.457V265.481C212.37 265.75 212.589 265.969 212.858 265.969H216.882C217.151 265.969 217.37 265.75 217.37 265.481V263.457C217.37 263.187 217.151 262.969 216.882 262.969Z" fill="#3F3D56"/>
<path d="M226.882 262.969H222.858C222.589 262.969 222.37 263.187 222.37 263.457V265.481C222.37 265.75 222.589 265.969 222.858 265.969H226.882C227.151 265.969 227.37 265.75 227.37 265.481V263.457C227.37 263.187 227.151 262.969 226.882 262.969Z" fill="#3F3D56"/>
<path d="M76.7637 267.969H72.7401C72.4705 267.969 72.2519 268.187 72.2519 268.457V270.481C72.2519 270.75 72.4705 270.969 72.7401 270.969H76.7637C77.0333 270.969 77.2519 270.75 77.2519 270.481V268.457C77.2519 268.187 77.0333 267.969 76.7637 267.969Z" fill="#3F3D56"/>
<path d="M86.7637 267.969H82.7401C82.4705 267.969 82.2519 268.187 82.2519 268.457V270.481C82.2519 270.75 82.4705 270.969 82.7401 270.969H86.7637C87.0333 270.969 87.2519 270.75 87.2519 270.481V268.457C87.2519 268.187 87.0333 267.969 86.7637 267.969Z" fill="#3F3D56"/>
<path d="M96.7637 267.969H92.7401C92.4705 267.969 92.2519 268.187 92.2519 268.457V270.481C92.2519 270.75 92.4705 270.969 92.7401 270.969H96.7637C97.0333 270.969 97.2519 270.75 97.2519 270.481V268.457C97.2519 268.187 97.0333 267.969 96.7637 267.969Z" fill="#3F3D56"/>
<path d="M106.764 267.969H102.74C102.47 267.969 102.252 268.187 102.252 268.457V270.481C102.252 270.75 102.47 270.969 102.74 270.969H106.764C107.033 270.969 107.252 270.75 107.252 270.481V268.457C107.252 268.187 107.033 267.969 106.764 267.969Z" fill="#3F3D56"/>
<path d="M116.764 267.969H112.74C112.47 267.969 112.252 268.187 112.252 268.457V270.481C112.252 270.75 112.47 270.969 112.74 270.969H116.764C117.033 270.969 117.252 270.75 117.252 270.481V268.457C117.252 268.187 117.033 267.969 116.764 267.969Z" fill="#3F3D56"/>
<path d="M126.764 267.969H122.74C122.47 267.969 122.252 268.187 122.252 268.457V270.481C122.252 270.75 122.47 270.969 122.74 270.969H126.764C127.033 270.969 127.252 270.75 127.252 270.481V268.457C127.252 268.187 127.033 267.969 126.764 267.969Z" fill="#3F3D56"/>
<path d="M136.764 267.969H132.74C132.47 267.969 132.252 268.187 132.252 268.457V270.481C132.252 270.75 132.47 270.969 132.74 270.969H136.764C137.033 270.969 137.252 270.75 137.252 270.481V268.457C137.252 268.187 137.033 267.969 136.764 267.969Z" fill="#3F3D56"/>
<path d="M146.764 267.969H142.74C142.47 267.969 142.252 268.187 142.252 268.457V270.481C142.252 270.75 142.47 270.969 142.74 270.969H146.764C147.033 270.969 147.252 270.75 147.252 270.481V268.457C147.252 268.187 147.033 267.969 146.764 267.969Z" fill="#3F3D56"/>
<path d="M156.764 267.969H152.74C152.47 267.969 152.252 268.187 152.252 268.457V270.481C152.252 270.75 152.47 270.969 152.74 270.969H156.764C157.033 270.969 157.252 270.75 157.252 270.481V268.457C157.252 268.187 157.033 267.969 156.764 267.969Z" fill="#3F3D56"/>
<path d="M166.764 267.969H162.74C162.47 267.969 162.252 268.187 162.252 268.457V270.481C162.252 270.75 162.47 270.969 162.74 270.969H166.764C167.033 270.969 167.252 270.75 167.252 270.481V268.457C167.252 268.187 167.033 267.969 166.764 267.969Z" fill="#3F3D56"/>
<path d="M176.764 267.969H172.74C172.47 267.969 172.252 268.187 172.252 268.457V270.481C172.252 270.75 172.47 270.969 172.74 270.969H176.764C177.033 270.969 177.252 270.75 177.252 270.481V268.457C177.252 268.187 177.033 267.969 176.764 267.969Z" fill="#3F3D56"/>
<path d="M186.764 267.969H182.74C182.47 267.969 182.252 268.187 182.252 268.457V270.481C182.252 270.75 182.47 270.969 182.74 270.969H186.764C187.033 270.969 187.252 270.75 187.252 270.481V268.457C187.252 268.187 187.033 267.969 186.764 267.969Z" fill="#3F3D56"/>
<path d="M196.764 267.969H192.74C192.47 267.969 192.252 268.187 192.252 268.457V270.481C192.252 270.75 192.47 270.969 192.74 270.969H196.764C197.033 270.969 197.252 270.75 197.252 270.481V268.457C197.252 268.187 197.033 267.969 196.764 267.969Z" fill="#3F3D56"/>
<path d="M206.764 267.969H202.74C202.47 267.969 202.252 268.187 202.252 268.457V270.481C202.252 270.75 202.47 270.969 202.74 270.969H206.764C207.033 270.969 207.252 270.75 207.252 270.481V268.457C207.252 268.187 207.033 267.969 206.764 267.969Z" fill="#3F3D56"/>
<path d="M216.764 267.969H212.74C212.47 267.969 212.252 268.187 212.252 268.457V270.481C212.252 270.75 212.47 270.969 212.74 270.969H216.764C217.033 270.969 217.252 270.75 217.252 270.481V268.457C217.252 268.187 217.033 267.969 216.764 267.969Z" fill="#3F3D56"/>
<path d="M226.764 267.969H222.74C222.47 267.969 222.252 268.187 222.252 268.457V270.481C222.252 270.75 222.47 270.969 222.74 270.969H226.764C227.033 270.969 227.252 270.75 227.252 270.481V268.457C227.252 268.187 227.033 267.969 226.764 267.969Z" fill="#3F3D56"/>
<path d="M159.764 273.969H120.74C120.47 273.969 120.252 274.187 120.252 274.457V276.481C120.252 276.75 120.47 276.969 120.74 276.969H159.764C160.033 276.969 160.252 276.75 160.252 276.481V274.457C160.252 274.187 160.033 273.969 159.764 273.969Z" fill="#3F3D56"/>
<path d="M270.475 32.3498H15.1518C14.8864 32.3439 14.6339 32.2343 14.4483 32.0446C14.2627 31.8548 14.1588 31.5999 14.1588 31.3344C14.1588 31.069 14.2627 30.8141 14.4483 30.6243C14.6339 30.4345 14.8864 30.325 15.1518 30.3191H270.475C270.741 30.325 270.993 30.4345 271.179 30.6243C271.364 30.8141 271.468 31.069 271.468 31.3344C271.468 31.5999 271.364 31.8548 271.179 32.0446C270.993 32.2343 270.741 32.3439 270.475 32.3498Z" fill="#CACACA"/>
<path d="M32.532 25.1349C35.8183 25.1349 38.4824 22.4114 38.4824 19.0519C38.4824 15.6923 35.8183 12.9688 32.532 12.9688C29.2457 12.9688 26.5816 15.6923 26.5816 19.0519C26.5816 22.4114 29.2457 25.1349 32.532 25.1349Z" fill="#3F3D56"/>
<path d="M53.088 25.1349C56.3743 25.1349 59.0385 22.4114 59.0385 19.0519C59.0385 15.6923 56.3743 12.9688 53.088 12.9688C49.8017 12.9688 47.1376 15.6923 47.1376 19.0519C47.1376 22.4114 49.8017 25.1349 53.088 25.1349Z" fill="#3F3D56"/>
<path d="M73.644 25.1349C76.9304 25.1349 79.5945 22.4114 79.5945 19.0519C79.5945 15.6923 76.9304 12.9688 73.644 12.9688C70.3577 12.9688 67.6936 15.6923 67.6936 19.0519C67.6936 22.4114 70.3577 25.1349 73.644 25.1349Z" fill="#3F3D56"/>
<path d="M258.099 14.4766H243.497C243.207 14.4824 242.932 14.6014 242.729 14.8081C242.526 15.0148 242.413 15.2927 242.413 15.5822C242.413 15.8717 242.526 16.1496 242.729 16.3563C242.932 16.563 243.207 16.6821 243.497 16.6878H258.099C258.388 16.6821 258.664 16.563 258.866 16.3563C259.069 16.1496 259.182 15.8717 259.182 15.5822C259.182 15.2927 259.069 15.0148 258.866 14.8081C258.664 14.6014 258.388 14.4824 258.099 14.4766Z" fill="#3F3D56"/>
<path d="M258.099 18.6268H243.497C243.207 18.6325 242.932 18.7516 242.729 18.9583C242.526 19.165 242.413 19.4429 242.413 19.7324C242.413 20.0219 242.526 20.2998 242.729 20.5065C242.932 20.7132 243.207 20.8323 243.497 20.838H258.099C258.388 20.8323 258.664 20.7132 258.866 20.5065C259.069 20.2998 259.182 20.0219 259.182 19.7324C259.182 19.4429 259.069 19.165 258.866 18.9583C258.664 18.7516 258.388 18.6325 258.099 18.6268Z" fill="#3F3D56"/>
<path d="M258.099 22.7715H243.497C243.207 22.7773 242.932 22.8963 242.729 23.103C242.526 23.3097 242.413 23.5877 242.413 23.8771C242.413 24.1666 242.526 24.4445 242.729 24.6513C242.932 24.858 243.207 24.977 243.497 24.9828H258.099C258.388 24.977 258.664 24.858 258.866 24.6513C259.069 24.4445 259.182 24.1666 259.182 23.8771C259.182 23.5877 259.069 23.3097 258.866 23.103C258.664 22.8963 258.388 22.7773 258.099 22.7715Z" fill="#3F3D56"/>
<path d="M163.428 87.6676H131.524C129.128 87.6676 127.185 89.6103 127.185 92.0066C127.185 94.403 129.128 96.3456 131.524 96.3456H163.428C165.825 96.3456 167.767 94.403 167.767 92.0066C167.767 89.6103 165.825 87.6676 163.428 87.6676Z" fill="#6C63FF"/>
<path d="M184.038 105.024H110.914C108.518 105.024 106.575 106.966 106.575 109.363C106.575 111.759 108.518 113.702 110.914 113.702H184.038C186.435 113.702 188.377 111.759 188.377 109.363C188.377 106.966 186.435 105.024 184.038 105.024Z" fill="#E6E6E6"/>
<path d="M184.038 122.379H110.914C108.518 122.379 106.575 124.322 106.575 126.718C106.575 129.115 108.518 131.057 110.914 131.057H184.038C186.435 131.057 188.377 129.115 188.377 126.718C188.377 124.322 186.435 122.379 184.038 122.379Z" fill="#E6E6E6"/>
<path d="M41.2519 188.969C41.2579 192.543 40.6211 196.09 39.3719 199.439L11.3219 199.439C10.0469 199.437 8.82467 198.929 7.9231 198.028C7.02152 197.126 6.5141 195.904 6.5119 194.629V159.349C8.07917 159.095 9.66426 158.968 11.2519 158.969C15.1916 158.969 19.0928 159.744 22.7327 161.252C26.3725 162.76 29.6798 164.969 32.4656 167.755C35.2514 170.541 37.4612 173.848 38.9688 177.488C40.4763 181.128 41.2521 185.029 41.2519 188.969Z" fill="#E6E6E6"/>
</svg>
