<svg width="193" height="172" viewBox="0 0 193 172" fill="none" xmlns="http://www.w3.org/2000/svg">
<path d="M80.7445 170.912H20.1403C5.1796 156.574 -5.51731 142.756 3.04675 131.286C3.04675 127.989 4.35651 124.827 6.68789 122.495C9.01928 120.164 12.1813 118.854 15.4784 118.854H85.4064C88.7035 118.854 91.8655 120.164 94.1969 122.495C96.5283 124.827 97.838 127.989 97.838 131.286C101.099 144.355 95.2734 157.566 80.7445 170.912Z" fill="#CCCCCC"/>
<path d="M69.8605 103.204C69.2854 103.23 68.7162 103.079 68.2298 102.771C67.7435 102.464 67.3635 102.014 67.1415 101.482C66.9194 100.951 66.866 100.365 66.9884 99.8024C67.1108 99.24 67.4031 98.7288 67.8258 98.338L68.0182 97.5733C67.9929 97.512 67.9674 97.4508 67.9418 97.3897C67.3625 96.0214 66.3918 94.8548 65.1516 94.0364C63.9114 93.218 62.4571 92.7843 60.9712 92.7898C59.4854 92.7953 58.0343 93.2398 56.8002 94.0674C55.5661 94.895 54.6041 96.0687 54.035 97.4413C51.7605 102.919 48.8646 108.407 48.1516 114.199C47.8376 116.759 47.9701 119.355 48.5431 121.87C43.2009 110.216 40.4269 97.5504 40.409 84.7309C40.4079 81.514 40.5866 78.2996 40.9444 75.1026C41.24 72.4818 41.6502 69.8796 42.1749 67.2961C45.0382 53.2782 51.1859 40.1394 60.113 28.9588C64.4337 26.6013 67.928 22.976 70.1248 18.5714C70.9207 16.9881 71.4832 15.298 71.7948 13.5535C71.3074 13.6175 69.9571 6.19445 70.3247 5.73903C69.6454 4.70831 68.4297 4.19595 67.6879 3.19017C63.9984 -1.81194 58.9153 -0.938538 56.2617 5.85893C50.5931 8.71993 50.5382 13.4647 54.0164 18.0281C56.2293 20.9313 56.5334 24.8598 58.4751 27.9679C58.2753 28.2236 58.0675 28.4714 57.8678 28.7271C54.2162 33.4225 51.0336 38.4646 48.3655 43.7809C49.0144 37.8251 48.24 31.8003 46.1061 26.2022C43.9434 20.9849 39.8898 16.591 36.3201 12.0806C32.0323 6.66307 23.2398 9.02738 22.4843 15.895C22.477 15.9615 22.4699 16.028 22.4629 16.0944C22.9931 16.3936 23.5122 16.711 24.02 17.0469C24.658 17.4731 25.1523 18.0821 25.4383 18.7941C25.7242 19.5061 25.7884 20.2879 25.6224 21.037C25.4565 21.7861 25.0681 22.4676 24.5082 22.9921C23.9483 23.5167 23.243 23.8599 22.4846 23.9768L22.407 23.9888C22.5959 25.8998 22.9298 27.7936 23.4058 29.654C18.8263 47.3641 28.7131 53.8144 42.8301 54.1042C43.1417 54.264 43.4454 54.4238 43.757 54.5756C41.0765 62.1721 39.3951 70.0849 38.7551 78.1149C38.3928 82.8525 38.4142 87.6115 38.819 92.3456L38.795 92.1778C37.7722 86.9136 34.964 82.1637 30.8447 78.7302C24.7265 73.7043 16.0826 71.8535 9.48211 67.8137C8.78064 67.3633 7.96498 67.123 7.13137 67.1209C6.29777 67.1189 5.481 67.3553 4.77734 67.8022C4.07368 68.2492 3.51249 68.888 3.16 69.6434C2.8075 70.3989 2.67838 71.2393 2.78787 72.0657C2.79671 72.1245 2.80572 72.1833 2.81487 72.2421C3.79881 72.6429 4.75682 73.1045 5.68334 73.6244C6.21356 73.9236 6.73259 74.2411 7.24041 74.5769C7.87837 75.0031 8.3727 75.6121 8.65862 76.3241C8.94455 77.0361 9.00876 77.8178 8.8428 78.5669C8.67684 79.316 8.28846 79.9975 7.72857 80.5221C7.16868 81.0467 6.4634 81.3899 5.7051 81.5069L5.62737 81.5188C5.57146 81.5268 5.5235 81.5348 5.46765 81.5428C7.14884 85.557 9.50845 89.2517 12.4431 92.4654C15.3065 107.926 27.6051 109.392 40.7606 104.89H40.7686C42.2121 111.163 44.3034 117.268 47.0091 123.108H69.3019C69.3819 122.86 69.4537 122.605 69.5257 122.357C67.4622 122.487 65.3906 122.363 63.3571 121.99C65.0111 119.96 66.6651 117.914 68.3191 115.885C68.356 115.847 68.3907 115.807 68.423 115.765C69.262 114.726 70.1089 113.696 70.9479 112.657L70.9483 112.656C70.993 109.472 70.6277 106.295 69.8612 103.204L69.8605 103.204Z" fill="#CCCCCC"/>
<path d="M145.897 167.664C146.267 168.741 146.968 169.673 147.901 170.326C148.833 170.979 149.948 171.32 151.086 171.299L173.319 170.727C174.465 170.705 175.574 170.312 176.478 169.608C177.383 168.903 178.036 167.925 178.338 166.819L181.484 133.176C182.601 133.682 183.816 133.932 185.041 133.907C187.191 133.853 189.231 132.947 190.713 131.389C192.195 129.831 192.997 127.748 192.943 125.598C192.889 123.448 191.983 121.408 190.425 119.926C188.867 118.444 186.784 117.642 184.634 117.696C184.144 117.694 183.656 117.745 183.177 117.848C182.656 117.284 182.023 116.836 181.319 116.532C180.614 116.228 179.854 116.075 179.087 116.083L144.887 116.966C144.604 116.976 144.322 117.011 144.044 117.07C143.294 117.21 142.583 117.509 141.958 117.947C141.333 118.385 140.809 118.951 140.422 119.608C140.034 120.265 139.792 120.998 139.711 121.757C139.631 122.515 139.713 123.282 139.954 124.006L145.897 167.664ZM182.13 130.892L184.368 122.875C184.623 121.949 184.629 120.972 184.386 120.043C184.494 120.043 184.59 119.991 184.699 119.991C186.233 119.959 187.718 120.538 188.827 121.599C189.936 122.661 190.579 124.119 190.615 125.653C190.651 127.188 190.077 128.675 189.019 129.787C187.961 130.899 186.505 131.546 184.97 131.587C183.978 131.618 182.996 131.378 182.13 130.892Z" fill="#CCCCCC"/>
<path d="M144.044 117.07C144.772 121.236 152.964 124.165 162.814 123.656C171.871 123.239 179.277 120.058 180.634 116.289C180.132 116.14 179.61 116.071 179.086 116.083L144.887 116.966C144.604 116.976 144.321 117.011 144.044 117.07Z" fill="white"/>
</svg>
