<svg width="272" height="273" viewBox="0 0 272 273" fill="none" xmlns="http://www.w3.org/2000/svg">
<path d="M86.9313 166.758L99.0135 151.841L39.9097 103.968L27.8275 118.885L86.9313 166.758Z" fill="#F2F2F2"/>
<path d="M0.179596 93.5276C0.853933 89.9885 3.71893 86.8362 7.23775 86.4033C11.1678 85.9199 14.7702 88.6667 17.398 91.678C17.9671 92.3302 18.6762 93.0684 19.5236 92.9357C19.8597 92.8505 20.1625 92.6635 20.3918 92.3995C20.6212 92.1355 20.7664 91.8069 20.8081 91.4571C20.8782 90.7561 20.8063 90.048 20.5969 89.3764C20.2292 87.8387 19.8703 86.2691 19.9812 84.6906C20.0921 83.1121 20.7452 81.4962 22.0297 80.6031C23.3141 79.71 25.2787 79.7793 26.2579 81.0091C27.3642 82.3984 26.8531 84.4218 26.8788 86.2095C26.92 89.0724 28.5 91.7029 30.4458 93.772C32.3915 95.8412 34.7239 97.4918 36.777 99.4507C37.0386 99.7003 37.2984 99.9659 37.5448 100.244L37.7172 100.028C38.056 99.6025 38.4738 99.2492 38.9468 98.9881C39.4198 98.727 39.9387 98.5631 40.4739 98.506C41.0092 98.4488 41.5502 98.4995 42.0662 98.655C42.5822 98.8105 43.0631 99.0679 43.4813 99.4124C43.8995 99.7569 44.2469 100.182 44.5036 100.663C44.7603 101.144 44.9214 101.672 44.9776 102.216C45.0338 102.761 44.984 103.311 44.8311 103.836C44.6782 104.36 44.4251 104.849 44.0864 105.275L30.4041 122.455C30.0654 122.881 29.6476 123.234 29.1746 123.495C28.7016 123.756 28.1827 123.92 27.6475 123.977C27.1122 124.034 26.5712 123.984 26.0552 123.828C25.5392 123.673 25.0584 123.415 24.6402 123.071H24.6401C23.7955 122.375 23.2573 121.366 23.1438 120.267C23.0303 119.168 23.3509 118.067 24.035 117.208L25.3604 115.544C23.8746 114.152 22.1452 113.055 20.2621 112.312C17.524 111.166 14.6115 110.512 11.8361 109.463C8.51355 108.208 5.33846 106.334 3.06293 103.57C0.787405 100.806 -0.494759 97.0668 0.179596 93.5276Z" fill="#6C63FF"/>
<path d="M136.5 105C158.315 105 176 87.0914 176 65C176 42.9086 158.315 25 136.5 25C114.685 25 97 42.9086 97 65C97 87.0914 114.685 105 136.5 105Z" fill="#F2F2F2"/>
<path d="M136 273C185.153 273 225 233.377 225 184.5C225 135.623 185.153 96 136 96C86.8467 96 47 135.623 47 184.5C47 233.377 86.8467 273 136 273Z" fill="#F2F2F2"/>
<path d="M121 64C122.657 64 124 62.433 124 60.5C124 58.567 122.657 57 121 57C119.343 57 118 58.567 118 60.5C118 62.433 119.343 64 121 64Z" fill="#3F3D56"/>
<path d="M140 64C141.657 64 143 62.433 143 60.5C143 58.567 141.657 57 140 57C138.343 57 137 58.567 137 60.5C137 62.433 138.343 64 140 64Z" fill="#3F3D56"/>
<path d="M126.133 65.308L113.028 73.0818C112.598 73.3368 112.273 73.7394 112.112 74.2163C111.951 74.6931 111.964 75.2126 112.15 75.6803C112.336 76.1479 112.681 76.5326 113.124 76.7643C113.566 76.9961 114.077 77.0595 114.562 76.9431L128.296 73.6449C128.828 73.5172 129.295 73.1952 129.606 72.7409C129.917 72.2865 130.051 71.7319 129.982 71.1836L129.452 66.958C129.406 66.5903 129.27 66.24 129.057 65.9384C128.844 65.6368 128.561 65.3934 128.232 65.2299C127.903 65.0663 127.539 64.9879 127.173 65.0015C126.806 65.0152 126.449 65.1204 126.133 65.308Z" fill="#FD6584"/>
<path d="M136.5 156C140.09 156 143 153.09 143 149.5C143 145.91 140.09 143 136.5 143C132.91 143 130 145.91 130 149.5C130 153.09 132.91 156 136.5 156Z" fill="#3F3D56"/>
<path d="M136.5 185C140.09 185 143 182.09 143 178.5C143 174.91 140.09 172 136.5 172C132.91 172 130 174.91 130 178.5C130 182.09 132.91 185 136.5 185Z" fill="#3F3D56"/>
<path d="M136.5 214C140.09 214 143 210.866 143 207C143 203.134 140.09 200 136.5 200C132.91 200 130 203.134 130 207C130 210.866 132.91 214 136.5 214Z" fill="#3F3D56"/>
<path d="M184.81 81.0619C179.092 78.8496 172.342 80.2417 167.403 83.8684C163.597 86.6636 160.779 90.6216 157.009 93.4642C151.173 97.864 143.479 99.2186 136.184 98.6721C128.889 98.1256 121.852 95.8432 114.898 93.5778C114.898 93.5778 105.372 85.2338 99.1973 84.4539C96.098 84.0858 92.9554 84.412 89.9985 85.4087C87.0416 86.4054 84.3449 88.0475 82.1049 90.2154C78.5862 93.6721 76.3425 98.8705 77.7558 103.591C79.5026 109.424 86.2779 112.55 92.3699 112.169C98.462 111.787 96.854 117.578 102.18 114.603C96.6598 138.319 91.7492 151.645 74.7989 169.165C73.0744 170.947 71.2492 172.762 70.4013 175.09C69.5534 177.418 70.0127 180.433 72.1273 181.732C73.8052 182.762 75.9762 182.366 77.6399 181.242C76.1739 184.054 74.708 186.867 73.242 189.679C72.2064 191.666 71.1751 194.112 72.3439 196.024C73.7687 198.354 77.5896 197.89 79.3869 195.831C79.7612 197.938 81.321 199.915 83.4299 199.997C86.2973 200.109 88.0924 197.029 89.2208 194.398C98.6373 172.439 108.054 150.48 117.47 128.521C119.552 123.666 121.88 118.516 126.363 115.708C129.977 113.445 134.426 113.077 138.681 112.77L167.166 110.715C172.733 110.313 178.425 109.881 183.536 107.645C188.647 105.409 193.153 100.98 193.898 95.4635C194.716 89.4018 190.527 83.2742 184.81 81.0619Z" fill="#6C63FF"/>
<path d="M131.767 86C128.478 85.9841 125.202 85.601 122 84.858L122.233 83.9843C122.439 84.0379 142.897 89.1853 147.134 77L148 77.2929C145.536 84.3815 138.07 86 131.767 86Z" fill="#3F3D56"/>
<path d="M148.281 77.9977C147.331 78.0244 146.394 77.8149 145.61 77.4001C145.137 77.1146 144.749 76.7547 144.472 76.3443C144.194 75.9339 144.033 75.4825 144 75.0204L144.926 75C144.957 75.3538 145.083 75.6987 145.295 76.0131C145.508 76.3274 145.803 76.6044 146.162 76.8264C147.168 77.3858 148.708 77.4336 150.736 76.9688L151 77.6532C150.12 77.8678 149.204 77.9838 148.281 77.9977Z" fill="#3F3D56"/>
<path d="M183.808 45.7102C180.998 43.1212 177.169 41.092 174.834 38.278C170.852 33.4793 171.977 27.4934 170.976 21.9779C169.465 13.6539 162.297 5.72669 151.593 2.06831C140.889 -1.59008 126.878 -0.387396 118.564 5.61348C106.946 13.999 112.778 18.4808 102.28 27.5716C99.3323 30.124 95.4682 32.2031 93.3504 35.1369C91.2326 38.0708 89.2672 49.1361 93.5163 50.4968C98.0805 48.3659 175.15 56.3522 178.002 56.8579C180.853 57.3637 184.091 56.4852 185.728 54.7619C188.301 52.0531 186.618 48.2991 183.808 45.7102Z" fill="#6C63FF"/>
<path d="M244.359 124.68L232.277 109.763L173.173 157.636L185.256 172.553L244.359 124.68Z" fill="#F2F2F2"/>
<path d="M271.82 100.528C271.146 96.9885 268.281 93.8362 264.762 93.4033C260.832 92.9199 257.23 95.6667 254.602 98.678C254.033 99.3302 253.324 100.068 252.476 99.9357C252.14 99.8505 251.838 99.6635 251.608 99.3995C251.379 99.1355 251.234 98.8069 251.192 98.4571C251.122 97.7562 251.194 97.048 251.403 96.3764C251.771 94.8387 252.13 93.2691 252.019 91.6906C251.908 90.1121 251.255 88.4962 249.97 87.6031C248.686 86.71 246.721 86.7793 245.742 88.0091C244.636 89.3984 245.147 91.4219 245.121 93.2095C245.08 96.0724 243.5 98.7029 241.554 100.772C239.609 102.841 237.276 104.492 235.223 106.451C234.961 106.7 234.702 106.966 234.455 107.244L234.283 107.028C233.944 106.603 233.526 106.249 233.053 105.988C232.58 105.727 232.061 105.563 231.526 105.506C230.991 105.449 230.45 105.499 229.934 105.655C229.418 105.811 228.937 106.068 228.519 106.412C228.101 106.757 227.753 107.182 227.496 107.663C227.24 108.144 227.079 108.672 227.022 109.216C226.966 109.761 227.016 110.311 227.169 110.836C227.322 111.36 227.575 111.849 227.914 112.275L241.596 129.455C242.28 130.314 243.272 130.862 244.353 130.977C245.433 131.093 246.515 130.767 247.36 130.071C248.204 129.375 248.743 128.366 248.856 127.267C248.97 126.168 248.649 125.067 247.965 124.208L246.64 122.544C248.125 121.152 249.855 120.055 251.738 119.312C254.476 118.166 257.389 117.512 260.164 116.463C263.486 115.208 266.662 113.334 268.937 110.57C271.213 107.806 272.495 104.067 271.82 100.528Z" fill="#6C63FF"/>
</svg>
